<mxfile host="app.diagrams.net" modified="2024-06-14T14:56:19.713Z" agent="Mozilla/5.0 (X11; Linux x86_64) AppleWebKit/537.36 (KHTML, like Gecko) Chrome/124.0.0.0 Safari/537.36" etag="WpfBc3LUPTMu1sb-ybHt" version="24.5.4" type="device">
  <diagram name="Página-1" id="N3SzxeD-mX7SMYPCCI9h">
    <mxGraphModel dx="880" dy="575" grid="1" gridSize="10" guides="1" tooltips="1" connect="1" arrows="1" fold="1" page="1" pageScale="1" pageWidth="827" pageHeight="1169" background="#4D4D4D" math="0" shadow="0">
      <root>
        <mxCell id="0" />
        <mxCell id="1" parent="0" />
        <mxCell id="YwgEwiJtEhUnPQpLNCfA-1" value="&lt;b&gt;&lt;font color=&quot;#ffffff&quot; face=&quot;Courier New&quot;&gt;Actividad&lt;br&gt;Realizar el juego de Embaucado en C++ para dos jugadores humanos. El juego debe contar&lt;br&gt;con un menú principal con las siguientes opciones:&lt;br&gt;&lt;br&gt;---------------------&lt;br&gt;1 - JUGAR&lt;br&gt;2 - ESTADÍSTICAS&lt;br&gt;3 - CRÉDITOS&lt;br&gt;---------------------&lt;br&gt;0 - SALIR&lt;/font&gt;&lt;/b&gt;" style="text;whiteSpace=wrap;html=1;" vertex="1" parent="1">
          <mxGeometry x="40" y="10" width="760" height="160" as="geometry" />
        </mxCell>
        <mxCell id="YwgEwiJtEhUnPQpLNCfA-6" value="" style="group;aspect=fixed;" vertex="1" connectable="0" parent="1">
          <mxGeometry x="370" y="180" width="60" height="50" as="geometry" />
        </mxCell>
        <mxCell id="YwgEwiJtEhUnPQpLNCfA-2" value="" style="strokeWidth=2;html=1;shape=mxgraph.flowchart.start_2;whiteSpace=wrap;rounded=0;labelBackgroundColor=none;strokeColor=#FFFFFF;align=center;verticalAlign=middle;fontFamily=Helvetica;fontSize=12;fontColor=default;fillColor=#00331A;" vertex="1" parent="YwgEwiJtEhUnPQpLNCfA-6">
          <mxGeometry width="60" height="50" as="geometry" />
        </mxCell>
        <mxCell id="YwgEwiJtEhUnPQpLNCfA-3" value="&lt;font face=&quot;Courier New&quot; color=&quot;#ffffff&quot;&gt;&lt;span style=&quot;font-size: 21px;&quot;&gt;&lt;b&gt;I&lt;/b&gt;&lt;/span&gt;&lt;/font&gt;" style="text;strokeColor=none;align=center;fillColor=none;html=1;verticalAlign=middle;whiteSpace=wrap;rounded=0;" vertex="1" parent="YwgEwiJtEhUnPQpLNCfA-6">
          <mxGeometry x="15" y="10" width="30" height="30" as="geometry" />
        </mxCell>
        <mxCell id="YwgEwiJtEhUnPQpLNCfA-8" value="" style="group;aspect=fixed;" vertex="1" connectable="0" parent="1">
          <mxGeometry x="365" y="710" width="60" height="50" as="geometry" />
        </mxCell>
        <mxCell id="YwgEwiJtEhUnPQpLNCfA-5" value="" style="strokeWidth=2;html=1;shape=mxgraph.flowchart.start_2;whiteSpace=wrap;rounded=0;labelBackgroundColor=none;strokeColor=#FFFFFF;align=center;verticalAlign=middle;fontFamily=Helvetica;fontSize=12;fontColor=default;fillColor=#00331A;" vertex="1" parent="YwgEwiJtEhUnPQpLNCfA-8">
          <mxGeometry width="60" height="50" as="geometry" />
        </mxCell>
        <mxCell id="YwgEwiJtEhUnPQpLNCfA-7" value="&lt;font face=&quot;Courier New&quot; color=&quot;#ffffff&quot;&gt;&lt;span style=&quot;font-size: 21px;&quot;&gt;&lt;b&gt;F&lt;/b&gt;&lt;/span&gt;&lt;/font&gt;" style="text;strokeColor=none;align=center;fillColor=none;html=1;verticalAlign=middle;whiteSpace=wrap;rounded=0;" vertex="1" parent="YwgEwiJtEhUnPQpLNCfA-8">
          <mxGeometry x="15" y="11" width="30" height="30" as="geometry" />
        </mxCell>
        <mxCell id="YwgEwiJtEhUnPQpLNCfA-13" value="" style="group;aspect=fixed;" vertex="1" connectable="0" parent="1">
          <mxGeometry x="295" y="260" width="210" height="46" as="geometry" />
        </mxCell>
        <mxCell id="YwgEwiJtEhUnPQpLNCfA-9" value="" style="shape=trapezoid;perimeter=trapezoidPerimeter;whiteSpace=wrap;html=1;fixedSize=1;rounded=0;labelBackgroundColor=none;strokeColor=#FFFFFF;strokeWidth=2;align=center;verticalAlign=middle;fontFamily=Helvetica;fontSize=12;fontColor=default;fillColor=#00331A;aspect=fixed;" vertex="1" parent="YwgEwiJtEhUnPQpLNCfA-13">
          <mxGeometry width="210" height="40" as="geometry" />
        </mxCell>
        <mxCell id="YwgEwiJtEhUnPQpLNCfA-12" value="&lt;b&gt;&lt;font color=&quot;#ffffff&quot; style=&quot;font-size: 16px;&quot; face=&quot;Courier New&quot;&gt;&quot;EMBAUCADO&quot;&lt;/font&gt;&lt;/b&gt;" style="text;whiteSpace=wrap;html=1;aspect=fixed;" vertex="1" parent="YwgEwiJtEhUnPQpLNCfA-13">
          <mxGeometry x="48" y="6" width="120" height="40" as="geometry" />
        </mxCell>
        <mxCell id="YwgEwiJtEhUnPQpLNCfA-39" value="" style="line;strokeWidth=2;direction=south;html=1;hachureGap=4;fontFamily=Architects Daughter;fontSource=https://fonts.googleapis.com/css?family=Architects+Daughter;strokeColor=#FFFFFF;" vertex="1" parent="YwgEwiJtEhUnPQpLNCfA-13">
          <mxGeometry x="100" y="-30" width="10" height="30" as="geometry" />
        </mxCell>
        <mxCell id="YwgEwiJtEhUnPQpLNCfA-18" value="" style="group;aspect=fixed;" vertex="1" connectable="0" parent="1">
          <mxGeometry x="260" y="330" width="280" height="46" as="geometry" />
        </mxCell>
        <mxCell id="YwgEwiJtEhUnPQpLNCfA-10" value="" style="shape=trapezoid;perimeter=trapezoidPerimeter;whiteSpace=wrap;html=1;fixedSize=1;rounded=0;labelBackgroundColor=none;strokeColor=#FFFFFF;strokeWidth=2;align=center;verticalAlign=middle;fontFamily=Helvetica;fontSize=12;fontColor=default;fillColor=#00331A;" vertex="1" parent="YwgEwiJtEhUnPQpLNCfA-18">
          <mxGeometry width="280" height="40" as="geometry" />
        </mxCell>
        <mxCell id="YwgEwiJtEhUnPQpLNCfA-16" value="&lt;b&gt;&lt;font color=&quot;#ffffff&quot; style=&quot;font-size: 16px;&quot; face=&quot;Courier New&quot;&gt;&quot;---------------------&quot;&lt;/font&gt;&lt;/b&gt;" style="text;whiteSpace=wrap;html=1;" vertex="1" parent="YwgEwiJtEhUnPQpLNCfA-18">
          <mxGeometry x="25" y="6" width="230" height="40" as="geometry" />
        </mxCell>
        <mxCell id="YwgEwiJtEhUnPQpLNCfA-19" value="" style="group;aspect=fixed;" vertex="1" connectable="0" parent="1">
          <mxGeometry x="295" y="390" width="210" height="46" as="geometry" />
        </mxCell>
        <mxCell id="YwgEwiJtEhUnPQpLNCfA-20" value="" style="shape=trapezoid;perimeter=trapezoidPerimeter;whiteSpace=wrap;html=1;fixedSize=1;rounded=0;labelBackgroundColor=none;strokeColor=#FFFFFF;strokeWidth=2;align=center;verticalAlign=middle;fontFamily=Helvetica;fontSize=12;fontColor=default;fillColor=#00331A;aspect=fixed;" vertex="1" parent="YwgEwiJtEhUnPQpLNCfA-19">
          <mxGeometry width="210" height="40" as="geometry" />
        </mxCell>
        <mxCell id="YwgEwiJtEhUnPQpLNCfA-21" value="&lt;b&gt;&lt;font color=&quot;#ffffff&quot; style=&quot;font-size: 16px;&quot; face=&quot;Courier New&quot;&gt;&quot;1 _ JUGAR&quot;&lt;/font&gt;&lt;/b&gt;" style="text;whiteSpace=wrap;html=1;aspect=fixed;" vertex="1" parent="YwgEwiJtEhUnPQpLNCfA-19">
          <mxGeometry x="48" y="6" width="120" height="40" as="geometry" />
        </mxCell>
        <mxCell id="YwgEwiJtEhUnPQpLNCfA-38" value="" style="line;strokeWidth=2;direction=south;html=1;hachureGap=4;fontFamily=Architects Daughter;fontSource=https://fonts.googleapis.com/css?family=Architects+Daughter;strokeColor=#FFFFFF;" vertex="1" parent="YwgEwiJtEhUnPQpLNCfA-19">
          <mxGeometry x="100" y="-20" width="10" height="20" as="geometry" />
        </mxCell>
        <mxCell id="YwgEwiJtEhUnPQpLNCfA-25" value="" style="group;aspect=fixed;" vertex="1" connectable="0" parent="1">
          <mxGeometry x="295" y="450" width="210" height="40" as="geometry" />
        </mxCell>
        <mxCell id="YwgEwiJtEhUnPQpLNCfA-23" value="" style="shape=trapezoid;perimeter=trapezoidPerimeter;whiteSpace=wrap;html=1;fixedSize=1;rounded=0;labelBackgroundColor=none;strokeColor=#FFFFFF;strokeWidth=2;align=center;verticalAlign=middle;fontFamily=Helvetica;fontSize=12;fontColor=default;fillColor=#00331A;aspect=fixed;container=0;" vertex="1" parent="YwgEwiJtEhUnPQpLNCfA-25">
          <mxGeometry width="210" height="40" as="geometry" />
        </mxCell>
        <mxCell id="YwgEwiJtEhUnPQpLNCfA-24" value="&lt;b&gt;&lt;font color=&quot;#ffffff&quot; style=&quot;font-size: 16px;&quot; face=&quot;Courier New&quot;&gt;&quot;2 _ ESTADÍSTICAS&quot;&lt;/font&gt;&lt;/b&gt;" style="text;whiteSpace=wrap;html=1;container=0;" vertex="1" parent="YwgEwiJtEhUnPQpLNCfA-25">
          <mxGeometry x="15" y="7.660000000000025" width="180" height="32.34" as="geometry" />
        </mxCell>
        <mxCell id="YwgEwiJtEhUnPQpLNCfA-36" value="" style="line;strokeWidth=2;direction=south;html=1;hachureGap=4;fontFamily=Architects Daughter;fontSource=https://fonts.googleapis.com/css?family=Architects+Daughter;strokeColor=#FFFFFF;" vertex="1" parent="YwgEwiJtEhUnPQpLNCfA-25">
          <mxGeometry x="100" y="-20" width="10" height="20" as="geometry" />
        </mxCell>
        <mxCell id="YwgEwiJtEhUnPQpLNCfA-26" value="" style="group;aspect=fixed;" vertex="1" connectable="0" parent="1">
          <mxGeometry x="290" y="510" width="210" height="40" as="geometry" />
        </mxCell>
        <mxCell id="YwgEwiJtEhUnPQpLNCfA-27" value="" style="shape=trapezoid;perimeter=trapezoidPerimeter;whiteSpace=wrap;html=1;fixedSize=1;rounded=0;labelBackgroundColor=none;strokeColor=#FFFFFF;strokeWidth=2;align=center;verticalAlign=middle;fontFamily=Helvetica;fontSize=12;fontColor=default;fillColor=#00331A;aspect=fixed;container=0;" vertex="1" parent="YwgEwiJtEhUnPQpLNCfA-26">
          <mxGeometry width="210" height="40" as="geometry" />
        </mxCell>
        <mxCell id="YwgEwiJtEhUnPQpLNCfA-28" value="&lt;b&gt;&lt;font color=&quot;#ffffff&quot; style=&quot;font-size: 16px;&quot; face=&quot;Courier New&quot;&gt;&quot;3 _ CRÉDITOS&quot;&lt;/font&gt;&lt;/b&gt;" style="text;whiteSpace=wrap;html=1;container=0;" vertex="1" parent="YwgEwiJtEhUnPQpLNCfA-26">
          <mxGeometry x="34" y="7.660000000000025" width="180" height="32.34" as="geometry" />
        </mxCell>
        <mxCell id="YwgEwiJtEhUnPQpLNCfA-41" value="" style="line;strokeWidth=2;direction=south;html=1;hachureGap=4;fontFamily=Architects Daughter;fontSource=https://fonts.googleapis.com/css?family=Architects+Daughter;strokeColor=#FFFFFF;" vertex="1" parent="YwgEwiJtEhUnPQpLNCfA-26">
          <mxGeometry x="105" y="-20" width="10" height="20" as="geometry" />
        </mxCell>
        <mxCell id="YwgEwiJtEhUnPQpLNCfA-29" value="" style="group;aspect=fixed;" vertex="1" connectable="0" parent="1">
          <mxGeometry x="255" y="574" width="280" height="46" as="geometry" />
        </mxCell>
        <mxCell id="YwgEwiJtEhUnPQpLNCfA-30" value="" style="shape=trapezoid;perimeter=trapezoidPerimeter;whiteSpace=wrap;html=1;fixedSize=1;rounded=0;labelBackgroundColor=none;strokeColor=#FFFFFF;strokeWidth=2;align=center;verticalAlign=middle;fontFamily=Helvetica;fontSize=12;fontColor=default;fillColor=#00331A;" vertex="1" parent="YwgEwiJtEhUnPQpLNCfA-29">
          <mxGeometry width="280" height="40" as="geometry" />
        </mxCell>
        <mxCell id="YwgEwiJtEhUnPQpLNCfA-31" value="&lt;b&gt;&lt;font color=&quot;#ffffff&quot; style=&quot;font-size: 16px;&quot; face=&quot;Courier New&quot;&gt;&quot;---------------------&quot;&lt;/font&gt;&lt;/b&gt;" style="text;whiteSpace=wrap;html=1;" vertex="1" parent="YwgEwiJtEhUnPQpLNCfA-29">
          <mxGeometry x="25" y="6" width="230" height="40" as="geometry" />
        </mxCell>
        <mxCell id="YwgEwiJtEhUnPQpLNCfA-35" value="" style="line;strokeWidth=2;direction=south;html=1;hachureGap=4;fontFamily=Architects Daughter;fontSource=https://fonts.googleapis.com/css?family=Architects+Daughter;strokeColor=#FFFFFF;" vertex="1" parent="YwgEwiJtEhUnPQpLNCfA-29">
          <mxGeometry x="139" y="-24" width="10" height="24" as="geometry" />
        </mxCell>
        <mxCell id="YwgEwiJtEhUnPQpLNCfA-32" value="" style="group;aspect=fixed;" vertex="1" connectable="0" parent="1">
          <mxGeometry x="290" y="640" width="210" height="40" as="geometry" />
        </mxCell>
        <mxCell id="YwgEwiJtEhUnPQpLNCfA-33" value="" style="shape=trapezoid;perimeter=trapezoidPerimeter;whiteSpace=wrap;html=1;fixedSize=1;rounded=0;labelBackgroundColor=none;strokeColor=#FFFFFF;strokeWidth=2;align=center;verticalAlign=middle;fontFamily=Helvetica;fontSize=12;fontColor=default;fillColor=#00331A;aspect=fixed;container=0;" vertex="1" parent="YwgEwiJtEhUnPQpLNCfA-32">
          <mxGeometry width="210" height="40" as="geometry" />
        </mxCell>
        <mxCell id="YwgEwiJtEhUnPQpLNCfA-34" value="&lt;b&gt;&lt;font color=&quot;#ffffff&quot; style=&quot;font-size: 16px;&quot; face=&quot;Courier New&quot;&gt;&quot;0 _ SALIR&quot;&lt;/font&gt;&lt;/b&gt;" style="text;whiteSpace=wrap;html=1;container=0;" vertex="1" parent="YwgEwiJtEhUnPQpLNCfA-32">
          <mxGeometry x="50" y="7.660000000000025" width="180" height="32.34" as="geometry" />
        </mxCell>
        <mxCell id="YwgEwiJtEhUnPQpLNCfA-40" value="" style="line;strokeWidth=2;direction=south;html=1;hachureGap=4;fontFamily=Architects Daughter;fontSource=https://fonts.googleapis.com/css?family=Architects+Daughter;strokeColor=#FFFFFF;" vertex="1" parent="YwgEwiJtEhUnPQpLNCfA-32">
          <mxGeometry x="103" y="-28" width="10" height="28" as="geometry" />
        </mxCell>
        <mxCell id="YwgEwiJtEhUnPQpLNCfA-37" value="" style="line;strokeWidth=2;direction=south;html=1;hachureGap=4;fontFamily=Architects Daughter;fontSource=https://fonts.googleapis.com/css?family=Architects+Daughter;strokeColor=#FFFFFF;" vertex="1" parent="1">
          <mxGeometry x="395" y="300" width="10" height="30" as="geometry" />
        </mxCell>
        <mxCell id="YwgEwiJtEhUnPQpLNCfA-43" value="" style="line;strokeWidth=2;direction=south;html=1;hachureGap=4;fontFamily=Architects Daughter;fontSource=https://fonts.googleapis.com/css?family=Architects+Daughter;strokeColor=#FFFFFF;" vertex="1" parent="1">
          <mxGeometry x="390" y="680" width="10" height="30" as="geometry" />
        </mxCell>
      </root>
    </mxGraphModel>
  </diagram>
</mxfile>
